<svg width="100%" height="100%" viewBox="0 0 1920 450" version="1.1" xmlns="http://www.w3.org/2000/svg" xmlnsXlink="http://www.w3.org/1999/xlink" xmlSpace="preserve" xmlnsSerif="http://www.serif.com/" style="fill-rule:evenodd;clip-rule:evenodd;stroke-linejoin:round;stroke-miterlimit:2;">
    <rect x="0" y="0" width="1920" height="450" style="fill:rgb(29,34,39);"/>
    <g transform="matrix(7.5926,0,0,7.5926,-9162.72,-1318.72)">
        <text x="1409.84px" y="204.149px" style="font-family:'Helvetica';font-size:12px;fill:white;stroke:white;stroke-width:0.13px;">Explore</text>
        <text x="1409.84px" y="216.149px" style="font-family:'Helvetica';font-size:12px;fill:white;stroke:white;stroke-width:0.13px;">Tezos</text>
    </g>
    <path d="M1032,0L1031.3,10.7C1030.7,21.3 1029.3,42.7 1025.3,64.2C1021.3,85.7 1014.7,107.3 1005.8,128.8C997,150.3 986,171.7 964.8,193C943.7,214.3 912.3,235.7 896.8,257C881.3,278.3 881.7,299.7 889.7,321.2C897.7,342.7 913.3,364.3 924.2,385.8C935,407.3 941,428.7 944,439.3L947,450L0,450L0,0L1032,0Z" style="fill:rgb(15,97,255);fill-rule:nonzero;"/>
    <path d="M857,0L856.8,10.7C856.7,21.3 856.3,42.7 855.3,64.2C854.3,85.7 852.7,107.3 835.5,128.8C818.3,150.3 785.7,171.7 770.3,193C755,214.3 757,235.7 757.2,257C757.3,278.3 755.7,299.7 762,321.2C768.3,342.7 782.7,364.3 776.5,385.8C770.3,407.3 743.7,428.7 730.3,439.3L717,450L0,450L0,0L857,0Z" style="fill:rgb(34,120,255);fill-rule:nonzero;"/>
    <path d="M629,0L625.5,10.7C622,21.3 615,42.7 623.7,64.2C632.3,85.7 656.7,107.3 652.8,128.8C649,150.3 617,171.7 599.7,193C582.3,214.3 579.7,235.7 577,257C574.3,278.3 571.7,299.7 574.5,321.2C577.3,342.7 585.7,364.3 587.5,385.8C589.3,407.3 584.7,428.7 582.3,439.3L580,450L0,450L0,0L629,0Z" style="fill:rgb(64,140,255);fill-rule:nonzero;"/>
    <path d="M477,0L464.2,10.7C451.3,21.3 425.7,42.7 424.5,64.2C423.3,85.7 446.7,107.3 445.8,128.8C445,150.3 420,171.7 418.2,193C416.3,214.3 437.7,235.7 434.5,257C431.3,278.3 403.7,299.7 390.3,321.2C377,342.7 378,364.3 381.5,385.8C385,407.3 391,428.7 394,439.3L397,450L0,450L0,0L477,0Z" style="fill:rgb(94,160,255);fill-rule:nonzero;"/>
    <path d="M298,0L298.8,10.7C299.7,21.3 301.3,42.7 300.5,64.2C299.7,85.7 296.3,107.3 284.2,128.8C272,150.3 251,171.7 247.8,193C244.7,214.3 259.3,235.7 257.2,257C255,278.3 236,299.7 227.3,321.2C218.7,342.7 220.3,364.3 218.8,385.8C217.3,407.3 212.7,428.7 210.3,439.3L208,450L0,450L0,0L298,0Z" style="fill:rgb(124,179,255);fill-rule:nonzero;"/>
    <g transform="matrix(1.25905,0,0,1.25905,1402.73,209.73)">
        <g transform="matrix(1,0,0,1,-96.5,-118.5)">
            <path d="M175.8,171.2C173.5,130.5 122.3,112 117.4,110.1C117.2,110 117.2,109.8 117.3,109.6L170.1,56.6L170.1,50.9C170.1,50 169.3,49.2 168.4,49.2L71.1,49.2L71.1,7.7L35.2,15.2L35.2,20.6L37.2,20.6C37.2,20.6 46,20.6 46,29.4L46,49.1L18.2,49.1C17.7,49.1 17.2,49.6 17.2,50.1L17.2,62.6L46.1,62.6L46.1,130.5C46.1,151.8 59.8,166.6 83.8,164.6C88.9,164.2 93.6,162.2 97.6,159.6C99.4,158.4 100.5,156.5 100.5,154.3L100.5,147.6C92.7,152.8 86.1,152.5 86.1,152.5C70.9,152.5 71.2,133.2 71.2,133.2L71.2,62.6L141.2,62.6L90.8,113.4C90.7,120.1 90.6,125.3 90.6,125.4C90.6,125.6 90.7,125.7 90.9,125.7C137.1,133.5 149.6,163.4 149.6,172.1C149.6,172.1 154.6,214.4 112.3,217.3C112.3,217.3 84.6,218.5 79.7,207.4C79.5,207 79.7,206.6 80.1,206.4C84.7,204.3 87.8,200.2 87.8,194.7C87.8,186.5 82.8,179.8 72.3,179.8C63.8,179.8 56.8,186.5 56.8,194.7C56.8,194.7 52.8,230.3 112.2,229.3C180,228.1 175.8,171.2 175.8,171.2Z" style="fill:white;fill-rule:nonzero;"/>
        </g>
    </g>
</svg>