<?xml version="1.0" encoding="UTF-8" standalone="no"?><!DOCTYPE svg PUBLIC "-//W3C//DTD SVG 1.1//EN" "http://www.w3.org/Graphics/SVG/1.1/DTD/svg11.dtd"><svg width="100%" height="100%" viewBox="0 0 1999 924" version="1.1" xmlns="http://www.w3.org/2000/svg" xml:space="preserve" style="fill-rule:evenodd;clip-rule:evenodd;stroke-linejoin:round;stroke-miterlimit:2;"><g><text x="725.838px" y="508.872px" style="font-family:'Helvetica';font-size:379.63px;fill:#fff;stroke:#fff;stroke-width:4.11px;">Explore</text><text x="725.838px" y="855.252px" style="font-family:'Helvetica';font-size:379.63px;fill:#fff;stroke:#fff;stroke-width:4.11px;">Tezos</text></g><g><g><path d="M660.833,681.25c-9.583,-169.583 -222.916,-246.667 -243.333,-254.583c-0.833,-0.417 -0.833,-1.25 -0.417,-2.084l220,-220.833l0,-23.75c0,-3.75 -3.333,-7.083 -7.083,-7.083l-405.417,-0l0,-172.917l-149.583,31.25l-0,22.5l8.333,-0c0,-0 36.667,-0 36.667,36.667l-0,82.083l-115.833,-0c-2.084,-0 -4.167,2.083 -4.167,4.167l-0,52.083l120.417,0l-0,282.917c-0,88.75 57.083,150.416 157.083,142.083c21.25,-1.667 40.833,-10 57.5,-20.833c7.5,-5 12.083,-12.917 12.083,-22.084l0,-27.916c-32.5,21.666 -60,20.416 -60,20.416c-63.333,0 -62.083,-80.416 -62.083,-80.416l-0,-294.167l291.667,-0l-210,211.667c-0.417,27.916 -0.834,49.583 -0.834,50c0,0.833 0.417,1.25 1.25,1.25c192.5,32.5 244.584,157.083 244.584,193.333c-0,-0 20.833,176.25 -155.417,188.333c-0,0 -115.417,5 -135.833,-41.25c-0.834,-1.666 -0,-3.333 1.666,-4.166c19.167,-8.75 32.084,-25.834 32.084,-48.75c-0,-34.167 -20.834,-62.084 -64.584,-62.084c-35.416,0 -64.583,27.917 -64.583,62.084c-0,-0 -16.667,148.333 230.833,144.166c282.5,-5 265,-242.083 265,-242.083Z" style="fill:#fff;fill-rule:nonzero;"/></g></g></svg>