<svg id="visual" viewBox="0 0 1920 450"  style="width: 100%; height: auto;" xmlns="http://www.w3.org/2000/svg" xmlns:xlink="http://www.w3.org/1999/xlink" version="1.1"><rect x="0" y="0" width="1920" height="450" fill="#1D2227"></rect><path d="M1032 0L1031.3 10.7C1030.7 21.3 1029.3 42.7 1025.3 64.2C1021.3 85.7 1014.7 107.3 1005.8 128.8C997 150.3 986 171.7 964.8 193C943.7 214.3 912.3 235.7 896.8 257C881.3 278.3 881.7 299.7 889.7 321.2C897.7 342.7 913.3 364.3 924.2 385.8C935 407.3 941 428.7 944 439.3L947 450L0 450L0 439.3C0 428.7 0 407.3 0 385.8C0 364.3 0 342.7 0 321.2C0 299.7 0 278.3 0 257C0 235.7 0 214.3 0 193C0 171.7 0 150.3 0 128.8C0 107.3 0 85.7 0 64.2C0 42.7 0 21.3 0 10.7L0 0Z" fill="#0f61ff"></path><path d="M857 0L856.8 10.7C856.7 21.3 856.3 42.7 855.3 64.2C854.3 85.7 852.7 107.3 835.5 128.8C818.3 150.3 785.7 171.7 770.3 193C755 214.3 757 235.7 757.2 257C757.3 278.3 755.7 299.7 762 321.2C768.3 342.7 782.7 364.3 776.5 385.8C770.3 407.3 743.7 428.7 730.3 439.3L717 450L0 450L0 439.3C0 428.7 0 407.3 0 385.8C0 364.3 0 342.7 0 321.2C0 299.7 0 278.3 0 257C0 235.7 0 214.3 0 193C0 171.7 0 150.3 0 128.8C0 107.3 0 85.7 0 64.2C0 42.7 0 21.3 0 10.7L0 0Z" fill="#2278ff"></path><path d="M629 0L625.5 10.7C622 21.3 615 42.7 623.7 64.2C632.3 85.7 656.7 107.3 652.8 128.8C649 150.3 617 171.7 599.7 193C582.3 214.3 579.7 235.7 577 257C574.3 278.3 571.7 299.7 574.5 321.2C577.3 342.7 585.7 364.3 587.5 385.8C589.3 407.3 584.7 428.7 582.3 439.3L580 450L0 450L0 439.3C0 428.7 0 407.3 0 385.8C0 364.3 0 342.7 0 321.2C0 299.7 0 278.3 0 257C0 235.7 0 214.3 0 193C0 171.7 0 150.3 0 128.8C0 107.3 0 85.7 0 64.2C0 42.7 0 21.3 0 10.7L0 0Z" fill="#408cff"></path><path d="M477 0L464.2 10.7C451.3 21.3 425.7 42.7 424.5 64.2C423.3 85.7 446.7 107.3 445.8 128.8C445 150.3 420 171.7 418.2 193C416.3 214.3 437.7 235.7 434.5 257C431.3 278.3 403.7 299.7 390.3 321.2C377 342.7 378 364.3 381.5 385.8C385 407.3 391 428.7 394 439.3L397 450L0 450L0 439.3C0 428.7 0 407.3 0 385.8C0 364.3 0 342.7 0 321.2C0 299.7 0 278.3 0 257C0 235.7 0 214.3 0 193C0 171.7 0 150.3 0 128.8C0 107.3 0 85.7 0 64.2C0 42.7 0 21.3 0 10.7L0 0Z" fill="#5ea0ff"></path><path d="M298 0L298.8 10.7C299.7 21.3 301.3 42.7 300.5 64.2C299.7 85.7 296.3 107.3 284.2 128.8C272 150.3 251 171.7 247.8 193C244.7 214.3 259.3 235.7 257.2 257C255 278.3 236 299.7 227.3 321.2C218.7 342.7 220.3 364.3 218.8 385.8C217.3 407.3 212.7 428.7 210.3 439.3L208 450L0 450L0 439.3C0 428.7 0 407.3 0 385.8C0 364.3 0 342.7 0 321.2C0 299.7 0 278.3 0 257C0 235.7 0 214.3 0 193C0 171.7 0 150.3 0 128.8C0 107.3 0 85.7 0 64.2C0 42.7 0 21.3 0 10.7L0 0Z" fill="#7cb3ff"></path></svg>
